<?xml version="1.0" standalone="no"?>
<!DOCTYPE svg PUBLIC "-//W3C//DTD SVG 20010904//EN"
 "http://www.w3.org/TR/2001/REC-SVG-20010904/DTD/svg10.dtd">
<svg version="1.0" xmlns="http://www.w3.org/2000/svg"
 width="383.000000pt" height="382.000000pt" viewBox="0 0 383.000000 382.000000"
 preserveAspectRatio="xMidYMid meet">

<g transform="translate(0.000000,382.000000) scale(0.100000,-0.100000)"
fill="#000000" stroke="none">
<path d="M0 1910 l0 -1910 1915 0 1915 0 0 1910 0 1910 -1915 0 -1915 0 0
-1910z m2170 1395 c17 -9 30 -20 30 -25 0 -13 -3 -13 -36 5 -31 16 -58 18 -89
6 -15 -6 -2 -12 53 -25 40 -10 75 -23 79 -29 4 -7 -2 -8 -18 -3 -65 18 -78 14
-24 -8 73 -30 54 -33 -33 -6 -93 29 -118 27 -131 -11 -24 -68 -2 -353 37 -494
l9 -30 25 40 c40 64 80 145 104 215 l23 65 -1 -65 c-1 -75 -16 -111 -90 -214
-57 -78 -56 -50 -14 -289 51 -288 27 -464 -81 -595 l-37 -45 68 8 c153 16 288
86 420 218 62 63 66 65 35 22 -100 -140 -295 -248 -504 -280 -49 -8 -115 -21
-145 -30 -33 -10 -72 -14 -98 -11 -47 6 -102 31 -102 47 0 6 4 8 8 5 5 -3 6 8
4 25 -5 34 -6 34 65 13 30 -9 57 -13 60 -10 4 3 -2 6 -12 6 -10 0 -16 2 -13 5
2 3 26 1 52 -4 l48 -9 22 47 c19 42 21 62 20 221 -1 177 -27 375 -49 375 -17
0 -91 -119 -125 -201 -18 -43 -43 -119 -55 -168 l-24 -91 3 115 3 115 42 70
c24 39 68 103 99 143 l55 73 -21 152 c-29 207 -30 220 -21 313 10 98 39 179
85 239 l34 45 -29 0 c-48 0 -172 -27 -236 -51 -121 -45 -243 -134 -321 -233
-23 -29 -31 -34 -29 -20 1 19 28 62 65 107 33 40 166 131 229 158 93 39 213
69 306 76 44 3 94 12 110 19 41 18 110 17 145 -1z m192 -144 c40 -27 84 -61
98 -76 14 -15 -6 -4 -43 24 -38 28 -86 60 -108 71 -21 11 -39 23 -39 25 0 13
24 1 92 -44z m-841 -1257 c60 -39 84 -64 63 -64 -12 0 -78 43 -136 88 -50 39
-148 149 -148 167 0 4 34 -28 76 -70 42 -42 107 -97 145 -121z m214 -74 c13
-6 15 -9 5 -9 -8 0 -22 4 -30 9 -18 12 -2 12 25 0z m862 -320 c53 -23 107 -70
129 -113 12 -22 12 -28 2 -31 -7 -2 -28 -9 -47 -15 -33 -11 -36 -9 -67 24 -39
43 -89 65 -150 65 -87 0 -145 -49 -124 -104 12 -32 26 -39 169 -85 136 -44
205 -80 225 -119 40 -81 26 -153 -45 -216 -104 -94 -282 -94 -405 -1 -33 25
-100 122 -91 131 3 3 25 11 49 19 l45 13 34 -46 c47 -63 97 -87 181 -87 52 0
73 5 95 21 40 30 58 70 45 100 -16 34 -50 52 -179 95 -65 21 -133 47 -152 56
-103 55 -109 203 -11 273 77 55 200 63 297 20z m-1507 -20 c0 -37 -17 -63
-184 -288 l-184 -247 189 -3 189 -2 0 -45 0 -45 -265 0 -265 0 0 35 c0 30 26
70 185 280 102 134 185 246 185 249 0 3 -81 6 -180 6 l-180 0 0 50 0 50 255 0
255 0 0 -40z m405 -162 c78 -41 124 -119 125 -211 l0 -58 -192 1 c-208 1 -199
4 -176 -52 32 -82 183 -98 249 -27 27 29 29 29 73 17 25 -7 46 -15 46 -18 0
-19 -77 -91 -117 -111 -104 -51 -257 -16 -322 72 -55 76 -64 194 -21 279 23
45 92 107 135 120 43 13 165 6 200 -12z m532 11 c40 -15 73 -48 94 -94 16 -34
19 -66 19 -212 l0 -173 -50 0 -50 0 0 145 c0 160 -10 201 -54 230 -34 22 -117
16 -147 -11 -40 -36 -49 -75 -49 -224 l0 -140 -55 0 -55 0 0 240 0 240 55 0
55 0 0 -32 0 -31 23 20 c54 50 146 68 214 42z m1100 0 c95 -35 153 -119 153
-221 l0 -58 -190 0 c-211 0 -210 0 -170 -65 45 -73 176 -81 242 -14 28 28 31
28 74 17 24 -7 44 -16 44 -20 0 -19 -75 -89 -118 -109 -101 -49 -253 -17 -317
66 -102 135 -49 347 101 400 47 17 142 19 181 4z m-1197 -694 c0 -8 -8 -11
-22 -9 -23 5 -23 4 -2 -5 31 -14 39 -31 21 -48 -16 -16 -57 -10 -57 8 0 6 9 7
20 4 11 -3 20 -2 20 4 0 5 -9 13 -20 16 -24 8 -26 31 -3 43 20 12 43 5 43 -13z
m-838 3 c-6 -7 -12 -26 -15 -43 -4 -28 -4 -27 -6 7 0 20 -7 39 -13 41 -7 3 0
6 16 6 22 1 26 -2 18 -11z m83 -22 c8 3 15 13 15 22 0 8 3 12 6 9 10 -9 11
-77 2 -77 -5 0 -8 7 -8 15 0 21 -38 19 -43 -2 -3 -10 -5 2 -5 27 -1 36 1 41 8
23 6 -15 15 -21 25 -17z m99 19 c-17 -13 -17 -14 -1 -15 21 0 23 -20 2 -20 -8
0 -15 -4 -15 -10 0 -5 7 -10 15 -10 8 0 15 -4 15 -10 0 -5 -10 -8 -22 -6 -41
6 -37 86 4 86 21 0 21 0 2 -15z m156 9 c0 -3 -9 -19 -21 -35 l-20 -29 20 0
c12 0 21 -4 21 -10 0 -5 -13 -10 -30 -10 -33 0 -38 14 -15 44 17 22 20 40 6
31 -5 -3 -12 -1 -16 5 -4 6 6 10 24 10 17 0 31 -3 31 -6z m80 -4 c0 -5 -8 -10
-17 -10 -15 0 -14 -2 3 -15 17 -13 17 -14 2 -15 -22 0 -24 -20 -3 -20 8 0 15
-4 15 -10 0 -5 -11 -10 -25 -10 -23 0 -25 4 -25 45 0 41 2 45 25 45 14 0 25
-4 25 -10z m73 -12 l16 -23 0 23 c1 43 21 22 21 -23 0 -50 -14 -59 -32 -20
-15 32 -28 32 -28 -1 0 -14 -4 -23 -10 -19 -5 3 -10 24 -10 46 0 45 18 52 43
17z m145 -20 c-3 -47 -21 -55 -26 -12 -4 31 4 54 18 54 7 0 10 -17 8 -42z m74
15 l17 -28 1 28 c0 15 5 27 10 27 6 0 10 -20 10 -45 0 -52 -10 -56 -39 -17
l-20 27 -1 -27 c0 -16 -4 -28 -10 -28 -5 0 -10 20 -10 45 0 52 17 59 42 18z
m188 -18 c0 -25 -4 -45 -10 -45 -5 0 -10 20 -10 45 0 25 5 45 10 45 6 0 10
-20 10 -45z m102 20 c9 -21 8 -28 -7 -45 -10 -11 -29 -20 -42 -20 -21 0 -23 4
-23 45 0 43 1 45 30 45 23 0 33 -6 42 -25z m75 11 c-14 -11 -15 -15 -5 -20 10
-5 10 -7 1 -12 -18 -8 -16 -24 2 -24 8 0 15 -4 15 -10 0 -5 -11 -10 -25 -10
-25 0 -29 7 -28 55 1 34 2 35 31 35 25 -1 26 -2 9 -14z m109 3 c4 -8 9 -8 17
0 21 21 27 11 12 -19 -8 -16 -15 -36 -15 -45 0 -9 -4 -13 -10 -10 -5 3 -10 17
-10 30 0 13 -4 27 -10 30 -13 8 -13 25 -1 25 6 0 13 -5 17 -11z m142 -1 c32
-32 -4 -87 -48 -73 -25 8 -37 50 -20 70 15 18 51 20 68 3z m62 -23 c0 -24 5
-35 15 -35 10 0 15 11 15 35 0 19 5 35 11 35 6 0 9 -15 7 -36 -4 -44 -28 -65
-52 -45 -17 15 -22 81 -6 81 6 0 10 -16 10 -35z m137 -15 l1 -44 -19 24 -19
25 0 -23 c0 -13 -4 -20 -10 -17 -5 3 -10 24 -10 46 0 38 2 40 28 37 25 -3 27
-7 29 -48z m139 39 c4 -8 0 -9 -15 -4 -12 3 -21 2 -21 -4 0 -5 9 -13 20 -16
30 -9 26 -45 -4 -45 -14 0 -28 5 -31 10 -4 7 2 9 19 4 16 -4 26 -2 26 5 0 6
-6 11 -14 11 -18 0 -39 27 -31 40 8 13 42 13 51 -1z m94 -4 c13 -16 6 -35 -15
-35 -8 0 -19 -8 -24 -17 -8 -14 -10 -9 -11 25 0 35 3 42 19 42 10 0 24 -7 31
-15z m-1882 -36 c-3 -20 -5 -19 -9 9 -3 20 -2 29 4 23 5 -5 7 -19 5 -32z
m1939 -1 c-3 -8 -6 -5 -6 6 -1 11 2 17 5 13 3 -3 4 -12 1 -19z"/>
<path d="M2078 3253 c7 -3 16 -2 19 1 4 3 -2 6 -13 5 -11 0 -14 -3 -6 -6z"/>
<path d="M1893 2884 c3 -79 19 -208 41 -334 53 -300 69 -426 64 -512 -3 -42
-1 -75 3 -73 3 3 15 34 24 70 27 97 16 256 -30 470 -71 331 -84 401 -85 447 0
26 -5 50 -11 54 -9 5 -10 -27 -6 -122z"/>
<path d="M1699 1770 c14 -12 38 -20 62 -20 59 0 55 16 -8 29 -75 15 -82 14
-54 -9z"/>
<path d="M1314 1246 c-36 -16 -74 -61 -74 -87 0 -18 10 -19 140 -19 154 0 155
1 120 58 -34 56 -118 77 -186 48z"/>
<path d="M2974 1246 c-30 -13 -64 -52 -77 -88 -6 -17 5 -18 138 -18 159 0 160
0 125 58 -34 56 -118 77 -186 48z"/>
<path d="M2040 614 c0 -31 23 -28 28 4 2 15 -2 22 -12 22 -11 0 -16 -9 -16
-26z"/>
<path d="M2363 624 c-3 -8 -1 -20 5 -26 16 -16 42 -2 42 22 0 24 -38 28 -47 4z"/>
<path d="M2582 641 c2 -7 7 -12 11 -12 12 1 9 15 -3 20 -7 2 -11 -2 -8 -8z"/>
<path d="M2815 639 c-10 -15 1 -23 20 -15 9 3 13 10 10 16 -8 13 -22 13 -30
-1z"/>
</g>
</svg>
